<svg width="60" height="56" viewBox="0 0 60 56" fill="none" xmlns="http://www.w3.org/2000/svg">
<path d="M60 39.6949V13.2542H50.8475C50.2851 13.2542 49.8305 13.7088 49.8305 14.2712C49.8305 14.8336 50.2851 15.2881 50.8475 15.2881H57.9661V37.661H11.1864V15.2881H18.3051C18.8675 15.2881 19.322 14.8336 19.322 14.2712C19.322 13.7088 18.8675 13.2542 18.3051 13.2542H11.1864V5.11865C11.1864 4.55628 10.7319 4.10171 10.1695 4.10171H7.99119C7.53661 2.35255 5.95831 1.05086 4.0678 1.05086C1.82441 1.05086 0 2.87526 0 5.11865C0 7.36204 1.82441 9.18645 4.0678 9.18645C5.95831 9.18645 7.53661 7.88476 7.99119 6.1356H9.15254V13.2542V14.2712V38.678V39.6949V45.7966C9.15254 46.359 9.60712 46.8136 10.1695 46.8136H17.3197C16.0739 47.741 15.2542 49.2126 15.2542 50.8814C15.2542 53.6851 17.5353 55.9661 20.339 55.9661C23.1427 55.9661 25.4237 53.6851 25.4237 50.8814C25.4237 49.2126 24.6041 47.741 23.3583 46.8136H41.7264C40.4807 47.741 39.661 49.2126 39.661 50.8814C39.661 53.6851 41.942 55.9661 44.7458 55.9661C47.5495 55.9661 49.8305 53.6851 49.8305 50.8814C49.8305 49.2126 49.0108 47.741 47.7651 46.8136H53.8983C54.4607 46.8136 54.9153 46.359 54.9153 45.7966C54.9153 45.2342 54.4607 44.7797 53.8983 44.7797H11.1864V39.6949H60ZM4.0678 7.15255C2.9461 7.15255 2.0339 6.24035 2.0339 5.11865C2.0339 3.99696 2.9461 3.08476 4.0678 3.08476C4.81729 3.08476 5.4661 3.49662 5.81898 4.10171H5.08475C4.52237 4.10171 4.0678 4.55628 4.0678 5.11865C4.0678 5.68103 4.52237 6.1356 5.08475 6.1356H5.81898C5.4661 6.74069 4.81729 7.15255 4.0678 7.15255ZM20.339 53.9322C18.6569 53.9322 17.2881 52.5634 17.2881 50.8814C17.2881 49.1993 18.6569 47.8305 20.339 47.8305C22.021 47.8305 23.3898 49.1993 23.3898 50.8814C23.3898 52.5634 22.021 53.9322 20.339 53.9322ZM44.7458 53.9322C43.0637 53.9322 41.6949 52.5634 41.6949 50.8814C41.6949 49.1993 43.0637 47.8305 44.7458 47.8305C46.4278 47.8305 47.7966 49.1993 47.7966 50.8814C47.7966 52.5634 46.4278 53.9322 44.7458 53.9322Z" fill="#7367F0"/>
<path d="M34.5771 28.5085C42.428 28.5085 48.8144 22.122 48.8144 14.2712C48.8144 6.42035 42.428 0.033905 34.5771 0.033905C26.7263 0.033905 20.3398 6.42035 20.3398 14.2712C20.3398 22.122 26.7263 28.5085 34.5771 28.5085ZM34.5771 2.0678C41.3063 2.0678 46.7805 7.54204 46.7805 14.2712C46.7805 21.0003 41.3063 26.4746 34.5771 26.4746C27.848 26.4746 22.3737 21.0003 22.3737 14.2712C22.3737 7.54204 27.848 2.0678 34.5771 2.0678Z" fill="#7367F0"/>
<path d="M32.9082 20.138C32.9743 20.1919 33.0485 20.2244 33.1228 20.26C33.1533 20.2753 33.1807 20.2997 33.2122 20.3108C33.3241 20.3515 33.4421 20.3729 33.559 20.3729C33.7014 20.3729 33.8438 20.3414 33.975 20.2824C34.0248 20.26 34.0624 20.2153 34.1092 20.1847C34.1814 20.137 34.2587 20.0993 34.3187 20.0312L34.338 20.0088C34.338 20.0088 34.339 20.0078 34.34 20.0078C34.34 20.0078 34.3411 20.0068 34.3411 20.0058L42.4533 10.8786C42.8265 10.4597 42.7889 9.81593 42.3689 9.44373C41.9489 9.06949 41.3061 9.10712 40.9339 9.52814L33.4533 17.9444L28.1082 13.4902C27.6739 13.1312 27.0353 13.1892 26.6753 13.6203C26.3153 14.0525 26.3743 14.6942 26.8055 15.0532L32.9082 20.138Z" fill="#7367F0"/>
</svg>
