<svg width="60" height="56" viewBox="0 0 60 56" fill="none" xmlns="http://www.w3.org/2000/svg">
<path d="M9 24H17V14H9V24ZM11 16H15V22H11V16Z" fill="#2F2B3D" fill-opacity="0.9"/>
<path d="M9 36H17V26H9V36ZM11 28H15V34H11V28Z" fill="#2F2B3D" fill-opacity="0.9"/>
<path d="M9 48H17V38H9V48ZM11 40H15V46H11V40Z" fill="#2F2B3D" fill-opacity="0.9"/>
<path d="M36 23C35.447 23 35 23.447 35 24V33C35 33.553 35.447 34 36 34C36.553 34 37 33.553 37 33V24C37 23.447 36.553 23 36 23Z" fill="#2F2B3D" fill-opacity="0.9"/>
<path d="M36 36C35.447 36 35 36.447 35 37V46C35 46.553 35.447 47 36 47C36.553 47 37 46.553 37 46V37C37 36.447 36.553 36 36 36Z" fill="#2F2B3D" fill-opacity="0.9"/>
<path d="M31 23C30.447 23 30 23.447 30 24V25C30 25.553 30.447 26 31 26C31.553 26 32 25.553 32 25V24C32 23.447 31.553 23 31 23Z" fill="#2F2B3D" fill-opacity="0.9"/>
<path d="M31 28C30.447 28 30 28.447 30 29V31C30 31.553 30.447 32 31 32C31.553 32 32 31.553 32 31V29C32 28.447 31.553 28 31 28Z" fill="#2F2B3D" fill-opacity="0.9"/>
<path d="M31 34C30.447 34 30 34.447 30 35V36C30 36.553 30.447 37 31 37C31.553 37 32 36.553 32 36V35C32 34.447 31.553 34 31 34Z" fill="#2F2B3D" fill-opacity="0.9"/>
<path d="M31 39C30.447 39 30 39.447 30 40V42C30 42.553 30.447 43 31 43C31.553 43 32 42.553 32 42V40C32 39.447 31.553 39 31 39Z" fill="#2F2B3D" fill-opacity="0.9"/>
<path d="M30.29 45.29C30.109 45.479 30 45.74 30 46C30 46.27 30.109 46.52 30.29 46.71C30.479 46.89 30.74 47 31 47C31.26 47 31.52 46.89 31.71 46.71C31.89 46.52 32 46.27 32 46C32 45.74 31.89 45.479 31.71 45.29C31.33 44.92 30.68 44.91 30.29 45.29Z" fill="#2F2B3D" fill-opacity="0.9"/>
<path d="M48 0H0V7H3V51.783C3 54.108 4.892 56 7.217 56H40.783C43.108 56 45 54.108 45 51.783V7H48V0ZM43 51.783C43 53.006 42.006 54 40.783 54H7.217C5.994 54 5 53.006 5 51.783V5H9V12H17V5H26V9.255V10.745V16.745C26 17.988 27.012 19 28.255 19H36.255H37.745C38.988 19 40 17.988 40 16.745V9.255V5H43V51.783ZM11 5H15V10H11V5ZM34 5V7H32V5H34ZM38 5V7.026C37.915 7.016 37.832 7 37.745 7H36V5H38ZM28.255 17C28.114 17 28 16.886 28 16.745V12.974C28.085 12.984 28.168 13 28.255 13H30V17H28.255ZM32 13H33.745C33.886 13 34 13.114 34 13.255V16.745C34 16.832 34.016 16.915 34.026 17H32V13ZM36 16.745V13.255C36 12.012 34.988 11 33.745 11H28.255C28.114 11 28 10.886 28 10.745V9.255C28 9.114 28.114 9 28.255 9H37.745C37.886 9 38 9.114 38 9.255V16.745C38 16.886 37.886 17 37.745 17H36.255C36.114 17 36 16.886 36 16.745ZM30 7H28.255C28.168 7 28.085 7.016 28 7.026V5H30V7ZM46 5H45V3H40H26H17H9H3V5H2V2H46V5Z" fill="#2F2B3D" fill-opacity="0.9"/>
<path d="M59.7073 32.293L53.7083 26.294C53.6163 26.201 53.5053 26.128 53.3823 26.077C53.1383 25.976 52.8633 25.976 52.6183 26.077C52.4953 26.128 52.3843 26.202 52.2923 26.294L46.2932 32.293C45.9022 32.684 45.9022 33.316 46.2932 33.707C46.4882 33.902 46.7443 34 47.0003 34C47.2563 34 47.5123 33.902 47.7073 33.707L52.0003 29.414V55C52.0003 55.553 52.4473 56 53.0003 56C53.5533 56 54.0003 55.553 54.0003 55V29.414L58.2933 33.707C58.4882 33.902 58.7443 34 59.0003 34C59.2563 34 59.5123 33.902 59.7073 33.707C60.0983 33.316 60.0983 32.684 59.7073 32.293Z" fill="#2F2B3D" fill-opacity="0.9"/>
</svg>
