<svg width="18" height="18" viewBox="0 0 18 18" fill="none" xmlns="http://www.w3.org/2000/svg">
<path d="M13.938 10.9885C13.7936 11.3472 13.9672 11.7549 14.3258 11.8994C14.6844 12.0438 15.0922 11.8701 15.2366 11.5115L13.938 10.9885ZM2.76297 6.48855C2.61856 6.84716 2.7922 7.25494 3.15082 7.39935C3.50944 7.54376 3.91722 7.37011 4.06163 7.0115L2.76297 6.48855ZM6.74982 7.45C7.13642 7.45 7.44982 7.1366 7.44982 6.75C7.44982 6.3634 7.13642 6.05 6.74982 6.05V7.45ZM2.99982 6.75H2.29982C2.29982 7.1366 2.61322 7.45 2.99982 7.45V6.75ZM3.69982 3C3.69982 2.6134 3.38642 2.3 2.99982 2.3C2.61322 2.3 2.29982 2.6134 2.29982 3H3.69982ZM14.5873 11.25L15.2366 11.5115C16.6237 8.06699 14.9558 4.15024 11.5113 2.76319L11.2498 3.41252L10.9883 4.06185C13.7156 5.16008 15.0362 8.26127 13.938 10.9885L14.5873 11.25ZM11.2498 3.41252L11.5113 2.76319C8.06676 1.37614 4.15001 3.04404 2.76297 6.48855L3.4123 6.75002L4.06163 7.0115C5.15986 4.28422 8.26104 2.96362 10.9883 4.06185L11.2498 3.41252ZM6.74982 6.75V6.05H2.99982V6.75V7.45L6.74982 7.45V6.75ZM2.99982 6.75H3.69982V3H2.99982H2.29982V6.75H2.99982Z" fill="#2F2B3D" fill-opacity="0.9"/>
<path d="M12.6297 13.7775H12.6222" stroke="#2F2B3D" stroke-opacity="0.9" stroke-width="1.5" stroke-linecap="round" stroke-linejoin="round"/>
<path d="M3.04525 9.75H3.03775" stroke="#2F2B3D" stroke-opacity="0.9" stroke-width="1.5" stroke-linecap="round" stroke-linejoin="round"/>
<path d="M4.2225 12.63H4.215" stroke="#2F2B3D" stroke-opacity="0.9" stroke-width="1.5" stroke-linecap="round" stroke-linejoin="round"/>
<path d="M6.67514 14.5275H6.66764" stroke="#2F2B3D" stroke-opacity="0.9" stroke-width="1.5" stroke-linecap="round" stroke-linejoin="round"/>
<path d="M9.74984 14.955H9.74234" stroke="#2F2B3D" stroke-opacity="0.9" stroke-width="1.5" stroke-linecap="round" stroke-linejoin="round"/>
</svg>
