<svg width="26" height="26" viewBox="0 0 26 26" fill="none" xmlns="http://www.w3.org/2000/svg">
<g filter="url(#filter0_d_1_8944)">
<g clip-path="url(#clip0_1_8944)">
<mask id="mask0_1_8944" style="mask-type:luminance" maskUnits="userSpaceOnUse" x="3" y="1" width="27" height="20">
<rect x="3" y="1" width="26.6667" height="20" fill="white"/>
</mask>
<g mask="url(#mask0_1_8944)">
<path fill-rule="evenodd" clip-rule="evenodd" d="M3 14.3334H29.6667V21H3V14.3334Z" fill="#14DC5A"/>
<path fill-rule="evenodd" clip-rule="evenodd" d="M3 1H29.6667V9.33333H3V1Z" fill="#0099B5"/>
<path d="M31.7502 8.91638V14.7504H0.91626V8.91638H31.7502Z" fill="#F7FCFF" stroke="#C51918" stroke-width="0.833333"/>
<path d="M4.66687 5.28064C4.71252 2.86532 7.16897 2.44272 7.99987 2.7572C7.99987 2.7572 5.96678 3.28194 5.92859 5.30115C5.89068 7.32072 7.90417 7.86755 7.90417 7.86755C7.13002 8.1733 4.62152 7.69652 4.66687 5.28064ZM10.2987 6.01306H10.8964L10.4266 6.47888L10.6532 7.11267L10.0233 6.80017L9.46277 7.11267L9.62292 6.47888L9.08581 6.01306H9.78698L10.0223 5.41443L10.2987 6.01306ZM12.9471 6.01306H13.5448L13.0751 6.47888L13.3007 7.11267L12.6717 6.80017L12.1102 7.11267L12.2704 6.47888L11.7333 6.01306H12.4354L12.6708 5.41443L12.9471 6.01306ZM15.4305 6.01306H16.0282L15.5585 6.47888L15.785 7.11267L15.1551 6.80017L14.5946 7.11267L14.7548 6.47888L14.2176 6.01306H14.9188L15.1542 5.41443L15.4305 6.01306ZM17.9286 6.01306H18.5272L18.0565 6.47888L18.2831 7.11267L17.6532 6.80017L17.0926 7.11267L17.2528 6.47888L16.7157 6.01306H17.4178L17.6532 5.41443L17.9286 6.01306ZM20.455 6.01306H21.0526L20.5829 6.47888L20.8094 7.11267L20.1796 6.80017L19.619 7.11267L19.7792 6.47888L19.2421 6.01306H19.9432L20.1786 5.41443L20.455 6.01306ZM12.9471 4.3158H13.5448L13.0751 4.78064L13.3007 5.41443L12.6717 5.10291L12.1102 5.41443L12.2704 4.78064L11.7333 4.3158H12.4354L12.6708 3.71619L12.9471 4.3158ZM15.4305 4.3158H16.0282L15.5585 4.78064L15.785 5.41443L15.1551 5.10291L14.5946 5.41443L14.7548 4.78064L14.2176 4.3158H14.9188L15.1542 3.71619L15.4305 4.3158ZM17.9286 4.3158H18.5272L18.0565 4.78064L18.2831 5.41443L17.6532 5.10291L17.0926 5.41443L17.2528 4.78064L16.7157 4.3158H17.4178L17.6532 3.71619L17.9286 4.3158ZM20.455 4.3158H21.0526L20.5829 4.78064L20.8094 5.41443L20.1796 5.10291L19.619 5.41443L19.7792 4.78064L19.2421 4.3158H19.9432L20.1786 3.71619L20.455 4.3158ZM15.3934 2.71814H15.9911L15.5214 3.18298L15.7469 3.81677L15.118 3.50525L14.5565 3.81677L14.7167 3.18298L14.1796 2.71814H14.8817L15.1171 2.11853L15.3934 2.71814ZM17.8934 2.71814H18.4911L18.0214 3.18298L18.2469 3.81677L17.618 3.50525L17.0565 3.81677L17.2167 3.18298L16.6796 2.71814H17.3817L17.6171 2.11853L17.8934 2.71814ZM20.4178 2.71814H21.0155L20.5458 3.18298L20.7714 3.81677L20.1425 3.50525L19.5809 3.81677L19.7411 3.18298L19.204 2.71814H19.9061L20.1415 2.11853L20.4178 2.71814Z" fill="#F7FCFF"/>
</g>
<rect x="3" y="1" width="26.6667" height="20" fill="url(#paint0_linear_1_8944)" style="mix-blend-mode:overlay"/>
</g>
<rect x="3.41667" y="1.41667" width="19.1667" height="19.1667" rx="9.58333" stroke="black" stroke-opacity="0.1" stroke-width="0.833333" style="mix-blend-mode:multiply"/>
</g>
<defs>
<filter id="filter0_d_1_8944" x="0" y="0" width="26" height="26" filterUnits="userSpaceOnUse" color-interpolation-filters="sRGB">
<feFlood flood-opacity="0" result="BackgroundImageFix"/>
<feColorMatrix in="SourceAlpha" type="matrix" values="0 0 0 0 0 0 0 0 0 0 0 0 0 0 0 0 0 0 127 0" result="hardAlpha"/>
<feOffset dy="2"/>
<feGaussianBlur stdDeviation="1.5"/>
<feColorMatrix type="matrix" values="0 0 0 0 0 0 0 0 0 0 0 0 0 0 0 0 0 0 0.1 0"/>
<feBlend mode="normal" in2="BackgroundImageFix" result="effect1_dropShadow_1_8944"/>
<feBlend mode="normal" in="SourceGraphic" in2="effect1_dropShadow_1_8944" result="shape"/>
</filter>
<linearGradient id="paint0_linear_1_8944" x1="16.3333" y1="1" x2="16.3333" y2="21" gradientUnits="userSpaceOnUse">
<stop stop-color="white" stop-opacity="0.7"/>
<stop offset="1" stop-opacity="0.3"/>
</linearGradient>
<clipPath id="clip0_1_8944">
<rect x="3" y="1" width="20" height="20" rx="10" fill="white"/>
</clipPath>
</defs>
</svg>
