<svg width="80" height="80" viewBox="0 0 80 80" fill="none" xmlns="http://www.w3.org/2000/svg">
<g clip-path="url(#clip0_334_231)">
<rect width="80" height="80" rx="40" fill="white"/>
<g clip-path="url(#clip1_334_231)">
<path d="M0 58H116V87H0V58Z" fill="#1EB53A"/>
<path d="M-1 -4H115V28H-1V-4Z" fill="#0099B5"/>
<path d="M0 27.8398H116V59.1598H0V27.8398Z" fill="#CE1126"/>
<path d="M0 29.5801H116V57.4201H0V29.5801Z" fill="white"/>
<path d="M22.44 26.88C28.2059 26.88 32.88 22.2059 32.88 16.44C32.88 10.6741 28.2059 6 22.44 6C16.6741 6 12 10.6741 12 16.44C12 22.2059 16.6741 26.88 22.44 26.88Z" fill="white"/>
<path d="M26.44 26.88C32.2059 26.88 36.88 22.2059 36.88 16.44C36.88 10.6741 32.2059 6 26.44 6C20.6741 6 16 10.6741 16 16.44C16 22.2059 20.6741 26.88 26.44 26.88Z" fill="#0099B5"/>
<path d="M46.8941 21.7041L46.2329 23.6877L47.2421 24.0357" fill="white"/>
<path d="M46.8941 21.7041L47.5553 23.6877L46.5461 24.0357" fill="white"/>
<path d="M48.8799 23.1469L46.7891 23.131L46.77 24.1984" fill="white"/>
<path d="M48.8799 23.147L47.1977 24.3888L46.5549 23.5366" fill="white"/>
<path d="M44.9083 23.147L46.5905 24.3888L47.2333 23.5366" fill="white"/>
<path d="M44.9083 23.1469L46.9991 23.131L47.0182 24.1984" fill="white"/>
<path d="M48.1212 25.4815L47.4903 23.488L46.4693 23.7997" fill="white"/>
<path d="M48.1214 25.4815L46.4205 24.2654L47.0324 23.3906" fill="white"/>
<path d="M45.6668 25.4815L47.3677 24.2654L46.7557 23.3906" fill="white"/>
<path d="M45.6668 25.4814L46.2978 23.488L47.3188 23.7997" fill="white"/>
<path d="M46.8941 13.3521L46.2329 15.3357L47.2421 15.6837" fill="white"/>
<path d="M46.8941 13.3521L47.5553 15.3357L46.5461 15.6837" fill="white"/>
<path d="M48.8799 14.7949L46.7891 14.779L46.77 15.8463" fill="white"/>
<path d="M48.8799 14.795L47.1977 16.0368L46.5549 15.1845" fill="white"/>
<path d="M44.9083 14.795L46.5905 16.0368L47.2333 15.1845" fill="white"/>
<path d="M44.9083 14.7949L46.9991 14.779L47.0182 15.8463" fill="white"/>
<path d="M48.1212 17.1294L47.4903 15.1359L46.4693 15.4476" fill="white"/>
<path d="M48.1214 17.1294L46.4205 15.9133L47.0324 15.0386" fill="white"/>
<path d="M45.6668 17.1294L47.3677 15.9133L46.7557 15.0386" fill="white"/>
<path d="M45.6668 17.1294L46.2978 15.136L47.3188 15.4476" fill="white"/>
<path d="M46.8941 5L46.2329 6.9836L47.2421 7.3316" fill="white"/>
<path d="M46.8941 5L47.5553 6.9836L46.5461 7.3316" fill="white"/>
<path d="M48.8799 6.4428L46.7891 6.42693L46.77 7.49428" fill="white"/>
<path d="M48.8799 6.44294L47.1977 7.68474L46.5549 6.83247" fill="white"/>
<path d="M44.9083 6.44294L46.5905 7.68474L47.2333 6.83247" fill="white"/>
<path d="M44.9083 6.4428L46.9991 6.42693L47.0182 7.49428" fill="white"/>
<path d="M48.1212 8.77736L47.4903 6.78385L46.4693 7.09556" fill="white"/>
<path d="M48.1214 8.77736L46.4205 7.56127L47.0324 6.68652" fill="white"/>
<path d="M45.6668 8.77737L47.3677 7.56125L46.7557 6.68652" fill="white"/>
<path d="M45.6668 8.77732L46.2978 6.78391L47.3188 7.09556" fill="white"/>
<path d="M55.2461 21.7041L54.5849 23.6877L55.5941 24.0357" fill="white"/>
<path d="M55.2461 21.7041L55.9073 23.6877L54.8981 24.0357" fill="white"/>
<path d="M57.2319 23.1469L55.1411 23.131L55.122 24.1984" fill="white"/>
<path d="M57.2319 23.147L55.5497 24.3888L54.9069 23.5366" fill="white"/>
<path d="M53.2603 23.147L54.9425 24.3888L55.5853 23.5366" fill="white"/>
<path d="M53.2603 23.1469L55.3511 23.131L55.3702 24.1984" fill="white"/>
<path d="M56.4732 25.4815L55.8423 23.488L54.8213 23.7997" fill="white"/>
<path d="M56.4734 25.4815L54.7725 24.2654L55.3844 23.3906" fill="white"/>
<path d="M54.0188 25.4815L55.7196 24.2654L55.1077 23.3906" fill="white"/>
<path d="M54.0188 25.4814L54.6498 23.488L55.6708 23.7997" fill="white"/>
<path d="M55.2461 13.3521L54.5849 15.3357L55.5941 15.6837" fill="white"/>
<path d="M55.2461 13.3521L55.9073 15.3357L54.8981 15.6837" fill="white"/>
<path d="M57.2319 14.7949L55.1411 14.779L55.122 15.8463" fill="white"/>
<path d="M57.2319 14.795L55.5497 16.0368L54.9069 15.1845" fill="white"/>
<path d="M53.2603 14.795L54.9425 16.0368L55.5853 15.1845" fill="white"/>
<path d="M53.2603 14.7949L55.3511 14.779L55.3702 15.8463" fill="white"/>
<path d="M56.4732 17.1294L55.8423 15.1359L54.8213 15.4476" fill="white"/>
<path d="M56.4734 17.1294L54.7725 15.9133L55.3844 15.0386" fill="white"/>
<path d="M54.0188 17.1294L55.7196 15.9133L55.1077 15.0386" fill="white"/>
<path d="M54.0188 17.1294L54.6498 15.136L55.6708 15.4476" fill="white"/>
<path d="M55.2461 5L54.5849 6.9836L55.5941 7.3316" fill="white"/>
<path d="M55.2461 5L55.9073 6.9836L54.8981 7.3316" fill="white"/>
<path d="M57.2319 6.4428L55.1411 6.42693L55.122 7.49428" fill="white"/>
<path d="M57.2319 6.44294L55.5497 7.68474L54.9069 6.83247" fill="white"/>
<path d="M53.2603 6.44294L54.9425 7.68474L55.5853 6.83247" fill="white"/>
<path d="M53.2603 6.4428L55.3511 6.42693L55.3702 7.49428" fill="white"/>
<path d="M56.4732 8.77736L55.8423 6.78385L54.8213 7.09556" fill="white"/>
<path d="M56.4734 8.77736L54.7725 7.56127L55.3844 6.68652" fill="white"/>
<path d="M54.0188 8.77737L55.7196 7.56125L55.1077 6.68652" fill="white"/>
<path d="M54.0188 8.77732L54.6498 6.78391L55.6708 7.09556" fill="white"/>
<path d="M63.5982 21.7041L62.937 23.6877L63.9462 24.0357" fill="white"/>
<path d="M63.5981 21.7041L64.2593 23.6877L63.2501 24.0357" fill="white"/>
<path d="M65.584 23.1469L63.4931 23.131L63.474 24.1984" fill="white"/>
<path d="M65.5839 23.147L63.9018 24.3888L63.2589 23.5366" fill="white"/>
<path d="M61.6123 23.147L63.2945 24.3888L63.9374 23.5366" fill="white"/>
<path d="M61.6123 23.1469L63.7032 23.131L63.7223 24.1984" fill="white"/>
<path d="M64.8253 25.4815L64.1944 23.488L63.1734 23.7997" fill="white"/>
<path d="M64.8254 25.4815L63.1246 24.2654L63.7365 23.3906" fill="white"/>
<path d="M62.3708 25.4815L64.0717 24.2654L63.4598 23.3906" fill="white"/>
<path d="M62.3709 25.4814L63.0019 23.488L64.0229 23.7997" fill="white"/>
<path d="M63.5982 13.3521L62.937 15.3357L63.9462 15.6837" fill="white"/>
<path d="M63.5981 13.3521L64.2593 15.3357L63.2501 15.6837" fill="white"/>
<path d="M65.5839 14.7949L63.4931 14.779L63.474 15.8463" fill="white"/>
<path d="M65.5839 14.795L63.9018 16.0368L63.2589 15.1845" fill="white"/>
<path d="M61.6123 14.795L63.2945 16.0368L63.9374 15.1845" fill="white"/>
<path d="M61.6123 14.7949L63.7032 14.779L63.7223 15.8463" fill="white"/>
<path d="M64.8253 17.1294L64.1944 15.1359L63.1734 15.4476" fill="white"/>
<path d="M64.8254 17.1294L63.1246 15.9133L63.7365 15.0386" fill="white"/>
<path d="M62.3708 17.1294L64.0717 15.9133L63.4598 15.0386" fill="white"/>
<path d="M62.3709 17.1294L63.0019 15.136L64.0229 15.4476" fill="white"/>
<path d="M63.5982 5L62.937 6.9836L63.9462 7.3316" fill="white"/>
<path d="M63.5981 5L64.2593 6.9836L63.2501 7.3316" fill="white"/>
<path d="M65.5839 6.4428L63.4931 6.42693L63.474 7.49428" fill="white"/>
<path d="M65.5839 6.44294L63.9018 7.68474L63.2589 6.83247" fill="white"/>
<path d="M61.6123 6.44294L63.2945 7.68474L63.9374 6.83247" fill="white"/>
<path d="M61.6123 6.4428L63.7032 6.42693L63.7223 7.49428" fill="white"/>
<path d="M64.8253 8.77736L64.1944 6.78385L63.1734 7.09556" fill="white"/>
<path d="M64.8255 8.77736L63.1246 7.56127L63.7366 6.68652" fill="white"/>
<path d="M62.3709 8.77737L64.0717 7.56125L63.4598 6.68652" fill="white"/>
<path d="M62.3709 8.77732L63.0019 6.78391L64.0229 7.09556" fill="white"/>
<path d="M30.1901 21.7041L29.5289 23.6877L30.5381 24.0357" fill="white"/>
<path d="M30.1901 21.7041L30.8513 23.6877L29.8421 24.0357" fill="white"/>
<path d="M32.1759 23.1469L30.0851 23.131L30.066 24.1984" fill="white"/>
<path d="M32.1759 23.147L30.4937 24.3888L29.8509 23.5366" fill="white"/>
<path d="M28.2043 23.147L29.8865 24.3888L30.5293 23.5366" fill="white"/>
<path d="M28.2043 23.1469L30.2951 23.131L30.3143 24.1984" fill="white"/>
<path d="M31.4172 25.4815L30.7863 23.488L29.7654 23.7997" fill="white"/>
<path d="M31.4174 25.4815L29.7165 24.2654L30.3285 23.3906" fill="white"/>
<path d="M28.9628 25.4815L30.6637 24.2654L30.0518 23.3906" fill="white"/>
<path d="M28.9628 25.4814L29.5938 23.488L30.6149 23.7997" fill="white"/>
<path d="M38.5421 21.7041L37.8809 23.6877L38.8901 24.0357" fill="white"/>
<path d="M38.5421 21.7041L39.2033 23.6877L38.1941 24.0357" fill="white"/>
<path d="M40.5279 23.1469L38.4371 23.131L38.418 24.1984" fill="white"/>
<path d="M40.5279 23.147L38.8457 24.3888L38.2029 23.5366" fill="white"/>
<path d="M36.5563 23.147L38.2385 24.3888L38.8813 23.5366" fill="white"/>
<path d="M36.5563 23.1469L38.6471 23.131L38.6662 24.1984" fill="white"/>
<path d="M39.7692 25.4815L39.1383 23.488L38.1174 23.7997" fill="white"/>
<path d="M39.7694 25.4815L38.0685 24.2654L38.6805 23.3906" fill="white"/>
<path d="M37.3148 25.4815L39.0157 24.2654L38.4038 23.3906" fill="white"/>
<path d="M37.3148 25.4814L37.9458 23.488L38.9668 23.7997" fill="white"/>
<path d="M38.5421 13.3521L37.8809 15.3357L38.8901 15.6837" fill="white"/>
<path d="M38.5421 13.3521L39.2033 15.3357L38.1941 15.6837" fill="white"/>
<path d="M40.5279 14.7949L38.4371 14.779L38.418 15.8463" fill="white"/>
<path d="M40.5279 14.795L38.8457 16.0368L38.2029 15.1845" fill="white"/>
<path d="M36.5563 14.795L38.2385 16.0368L38.8813 15.1845" fill="white"/>
<path d="M36.5563 14.7949L38.6471 14.779L38.6662 15.8463" fill="white"/>
<path d="M39.7692 17.1294L39.1383 15.1359L38.1174 15.4476" fill="white"/>
<path d="M39.7694 17.1294L38.0685 15.9133L38.6805 15.0386" fill="white"/>
<path d="M37.3148 17.1294L39.0157 15.9133L38.4038 15.0386" fill="white"/>
<path d="M37.3148 17.1294L37.9458 15.136L38.9668 15.4476" fill="white"/>
</g>
</g>
<defs>
<clipPath id="clip0_334_231">
<rect width="80" height="80" rx="40" fill="white"/>
</clipPath>
<clipPath id="clip1_334_231">
<rect width="116" height="87" fill="white"/>
</clipPath>
</defs>
</svg>
